<svg width="81" height="81" fill="none" xmlns="http://www.w3.org/2000/svg"><path fill-rule="evenodd" clip-rule="evenodd" d="M40.7 1.2a39.1 39.1 0 110 78.3 39.1 39.1 0 010-78.3z" fill="#fff"/><path fill-rule="evenodd" clip-rule="evenodd" d="M40.7 1.2a39.1 39.1 0 110 78.3 39.1 39.1 0 010-78.3z" fill="#E1E1E1"/><path fill-rule="evenodd" clip-rule="evenodd" d="M33 30h15a3 3 0 013 3v15a3 3 0 01-3 3H33a3 3 0 01-3-3V33a3 3 0 013-3zm11 10.5a3.5 3.5 0 10-7 0 3.5 3.5 0 007 0zM33 48v-9h1.2a6.5 6.5 0 1012.6 0H48v9H33zm11-11h4v-4h-4v4z" fill="#fff"/></svg>