<svg xmlns="http://www.w3.org/2000/svg" fill="none" viewBox="0 0 199 68"><path fill="#000" d="M82.1 49.5l1-.2v2.5c-.6.2-1.3.3-2.1.3-1.4 0-2.5-.5-3-1.7a8.9 8.9 0 01-5.9 2c-2.8 0-5.4-1.6-5.4-4.8 0-4 3.7-5.1 6.9-5.1 1.3 0 2.8.2 4 .5v-.6c0-2-1.4-3.2-4-3.2-2.3 0-4.2.5-5.6 1.1v-3.1c1.3-.4 3.5-1 5.9-1 4.3 0 7 2 7 6.7v5.5c.1.8.6 1 1.2 1zm-11.8-2.1c0 1.5 1.3 2.3 2.8 2.3 1.7 0 3.2-.6 4.5-1.9v-2.5c-1-.2-2.3-.4-3.3-.4-2 0-4 .6-4 2.5zM93 36.1c1.8 0 3.4.4 4.8 1.2v3.2a7.5 7.5 0 00-4.3-1.3c-2.7 0-5.5 1.4-5.5 5 0 3.5 2.7 5.1 5.5 5.1 1.6 0 3.2-.5 4.4-1.2v3.2c-1.4.7-3.1 1-5 1-4.1 0-8.3-2.4-8.3-8 0-5.7 4.4-8.2 8.4-8.2zM115.4 49.5l1-.2v2.5c-.6.2-1.4.3-2.1.3-1.4 0-2.5-.5-3.1-1.7a8.9 8.9 0 01-5.8 2c-2.8 0-5.4-1.6-5.4-4.8 0-4 3.7-5.1 6.9-5.1 1.3 0 2.8.2 4 .5v-.6c0-2-1.4-3.2-4-3.2-2.3 0-4.2.5-5.6 1.1v-3.1c1.2-.4 3.4-1 5.9-1 4.3 0 7 2 7 6.7v5.5c.1.8.6 1 1.2 1zm-11.8-2.1c0 1.5 1.3 2.3 2.9 2.3 1.6 0 3.2-.6 4.4-1.9v-2.5c-1-.2-2.2-.4-3.3-.4-2 0-4 .6-4 2.5zM134.4 29.5V52h-3v-2.4a7.1 7.1 0 01-6 2.8c-4.6 0-7.5-3.7-7.5-8.1 0-4.4 3-8.1 7.6-8.1a7 7 0 015.5 2.4v-9h3.4zm-8.3 9.7c-2.8 0-4.8 2-4.8 5s2 5.1 4.8 5.1c2.4 0 4.1-1.5 4.9-3.2v-3.7a5.3 5.3 0 00-5-3.2zM145.5 36.1c6.1 0 8.2 5 7.2 9.4h-11.5c.4 2.8 3 4 5.9 4 1.8 0 3.5-.5 4.8-1.2v3c-1.4.6-3.3 1-5.5 1-4.7 0-8.7-2.7-8.7-8 0-5.6 4.3-8.2 7.8-8.2zm.2 2.9c-2.3 0-4.4 1.3-4.5 4h8.5c.2-1.4-.7-4-4-4zM156.2 51.9V36.6h3v1.9a7 7 0 015.2-2.4c2.3 0 3.9 1 4.7 2.5a7.6 7.6 0 015.4-2.5c4 0 5.9 3 5.9 6.2V52h-3.5v-9.5c0-2-1.2-3.2-3-3.2-1.7 0-3 1.1-3.8 2V52h-3.4v-9.5c0-2-1.2-3.2-3-3.2-1.9 0-3.3 1.3-4 2.4v10.3h-3.5zM195.4 36.6h3.6L191.8 54c-1.7 4-3.8 5.3-6.2 5.3-.6 0-1.3 0-2-.2v-3c.5.3 1 .3 1.6.3 1.6 0 2.9-1.2 3.8-3.6l.3-.7-7.3-15.5h3.6l5.2 11.6 4.6-11.6zM71.3 2.7v8.7a7 7 0 015-2.1c3.8 0 6.3 2.6 6.3 6.2V25H79v-9c0-2.5-1.5-3.7-3.5-3.7s-3.4 1.4-4.3 2.6V25h-3.4V2.7h3.4zM92 4.2v5.5h5.5v3h-5.6v7c0 2 1 2.7 3 2.7 1 0 2-.2 3-.6v3c-1.1.3-2.6.6-4 .6-3 0-5.4-1.5-5.4-5v-7.8h-2.7v-3h2.7V5.1l3.4-.9zM101.9 25V9.7h3v2a7 7 0 015.1-2.4c2.3 0 4 1 4.8 2.4a7.6 7.6 0 015.4-2.4c4 0 5.8 3 5.8 6.2V25h-3.4v-9.6c0-2-1.2-3.2-3-3.2-1.7 0-3 1.1-3.9 2l.1 1.1V25h-3.4v-9.5c0-2-1.2-3.2-3-3.2-1.9 0-3.3 1.4-4.1 2.4V25h-3.4zM134.4 2.7H131V25h3.4V2.7zM27 0h-.2L0 2.8v49.1l26.8 16 26.8-16V2.8L27 0zm23 50L26.9 63.7 3.5 49.9V29.8l23.2 13.8V46l-15.9-9.5v2.5l16 9.6v2.5l-16-9.5v2.4l16 9.6 16-9.6V33.8l7.2-4.4V50zm0-23.2l-6.3 3.8-3 1.7-14-8.3v2.4l12 7.1-.1.1-.3.1-1.7 1-9.9-5.8v2.4l7.8 4.7-1.8 1.2-6-3.5v2.5l3.9 2.3-4 2.3-23-13.7 23-13.9L50 26.8zm0-2.4L26.8 10.6 3.5 24.4V6l23.3-2.5L50 6v18.4z"/></svg>