<svg xmlns="http://www.w3.org/2000/svg" fill="none" viewBox="0 0 199 68"><g fill="#000" opacity=".2"><path d="M82 49h1v3h-2c-1 0-3 0-3-2-2 2-3 2-6 2s-5-1-5-4c0-4 3-5 7-5h4v-1c0-2-2-3-4-3l-6 1v-3l6-1c4 0 7 2 7 7v5l1 1zm-12-2c0 2 2 3 3 3l5-2v-3h-4c-2 0-4 0-4 2zM93 36l5 1v3l-5-1c-2 0-5 2-5 5 0 4 3 5 5 5l5-1v3l-5 1c-4 0-8-2-8-8 0-5 4-8 8-8zM115 49h1v3h-2c-1 0-2 0-3-2-1 2-3 2-6 2-2 0-5-1-5-4 0-4 4-5 7-5h4v-1c0-2-2-3-4-3l-6 1v-3l6-1c5 0 7 2 7 7v5l1 1zm-11-2c0 2 1 3 2 3l5-2v-3h-3c-2 0-4 0-4 2zM134 30v22h-3v-3c-1 2-3 3-6 3-4 0-7-3-7-8 0-4 3-8 7-8l6 2v-8h3zm-8 9c-3 0-5 2-5 5s2 5 5 5c2 0 4-1 5-3v-4c-1-1-3-3-5-3zM145 36c7 0 9 5 8 10h-12c1 2 3 3 6 3l5-1v3l-6 1c-4 0-8-2-8-8 0-5 4-8 7-8zm1 3c-3 0-5 1-5 4h9c0-1-1-4-4-4zM156 52V37h3v1l5-2c3 0 4 1 5 3 1-2 3-3 6-3 4 0 5 3 5 6v10h-3V42c0-2-1-3-3-3l-4 2v11h-3V42c0-2-1-3-3-3s-4 2-4 3v10h-4zM195 37h4l-7 17c-2 4-4 5-6 5h-2v-3h1c2 0 3-1 4-3v-1l-7-15h4l5 11 4-11zM71 3v8l5-2c4 0 7 3 7 7v9h-4v-9c0-2-1-4-3-4s-4 2-5 3v10h-3V3h3zM92 4v6h5v3h-5v7c0 2 1 2 3 2h3v3h-4c-3 0-5-1-5-5v-7h-3v-3h3V5l3-1zM102 25V10h3v2c1-1 3-3 5-3s4 1 5 3c1-2 3-3 5-3 4 0 6 3 6 6v10h-3v-9c0-2-2-4-3-4l-4 2v11h-4v-9c0-2-1-4-3-4s-3 2-4 3v10h-3zM134 3h-3v22h3V3zM27 0L0 3v49l27 16 27-16V3L27 0zm23 50L27 64 3 50V30l24 14v2l-16-9v2l16 10v2l-16-9v2l16 10 16-10V34l7-5v21zm0-23l-6 4-3 1-14-8v2l12 8h-1l-1 1-10-6v2l8 5-2 1-6-3v2l4 2-4 3L4 27l23-14 23 14zm0-3L27 11 3 24V6l24-2 23 2v18z"/></g></svg>