<svg xmlns="http://www.w3.org/2000/svg" viewBox="0 0 160 65"><path d="M158 49l-4 1c-2 17-26 20-27 6 0-6 12-8 24-9 0-11-16 6-22-4-5-9 15-18 17-16 6 5 3 6-1 8-10 3-6 4-5 4 8-3 14-1 14 8h4c2 0 3 2 0 2zm-8 1c-9 1-17 3-16 5 2 6 14 7 16-5zm-32-5V33c1-7 12-3 9-2-3 2-5 9-6 12-1 2-3 2-3 2zM42 21c2 5-5 8-8 5-2-2-1-5 2-7 2-1 5-1 6 2zm15-2c3 5-5 9-9 5-1-2-1-5 3-7 2-1 4-2 6 2zM29 62c-8 5-14 4-12-11 1-11-1-12-3-10-3 3-5 10-5 17a51 51 0 001 5c0 1-5 3-8 1-1-1-2-9-2-20 0-9 1-15 2-15 8-2 10 1 8 8a48 48 0 00-2 8c2-5 4-9 7-10 8-5 14-3 13 6-2 17-3 19-1 18 2-2 4 1 2 3zm26-2c-2 3-8 5-13 4-8-1-13-8-11-18 2-11 18-18 23-10 4 5-2 16-11 19l-1 1c2 5 7 7 11 2 2-2 4-1 2 2zm-14-8c6-4 8-13 7-16-2-2-6 2-7 12v4zm42-7l-6 5c-2 1-5 0-5-3 0-1 1-3 4-4-1-2-2-3-3-2-3 3-7 12-6 19v1l1 2c0 1-5 3-8 0-1 0-2-6-2-17 0-9 2-17 3-17 6-2 10 1 8 7l-3 11c3-7 7-13 10-15 6-3 10 1 9 8l-1 2-1 3z"/><path d="M113 26a87 87 0 00-1 8c-1 10-1 19 1 23 0 2 3 5 6 2 3-4 6-2 2 2-2 2-7 4-11 4-3-1-5-3-6-6l-2 2c-2 3-4 4-8 3-6 0-10-7-8-18s11-14 16-12l1-4v-1a97 97 0 01-5 1c-24 4-16-15-10-20 7-6 7-2 5-1-3 3-5 16 5 16h5c4-19 14-27 22-24 9 3 8 17-12 25zm-11 25V39v-2c-3-1-6 4-7 11-1 9 2 13 5 11l2-8zm24-44c-1-2-8 1-12 15 10-5 14-13 12-15z"/></svg>